<svg xmlns="http://www.w3.org/2000/svg" version="1.1" xmlns:xlink="http://www.w3.org/1999/xlink" xmlns:svgjs="http://svgjs.dev/svgjs" width="128" height="128" viewBox="0 0 128 128"><g transform="matrix(0.5919540229885057,0,0,0.5919540229885057,26.050737903194033,12.333870967741937)"><svg viewBox="0 0 114 155" data-background-color="#ffffff" preserveAspectRatio="xMidYMid meet" height="174" width="128" xmlns="http://www.w3.org/2000/svg" xmlns:xlink="http://www.w3.org/1999/xlink"><g id="tight-bounds" transform="matrix(1,0,0,1,0.09659913169321044,0.25)"><svg viewBox="0 0 113.8068017366136 154.5" height="154.5" width="113.8068017366136"><g><svg viewBox="0 0 113.8068017366136 154.5" height="154.5" width="113.8068017366136"><g><svg viewBox="0 0 113.8068017366136 154.5" height="154.5" width="113.8068017366136"><g><svg viewBox="0 0 113.8068017366136 154.5" height="154.5" width="113.8068017366136"><g><svg viewBox="0 0 113.8068017366136 154.5" height="154.5" width="113.8068017366136"><g transform="matrix(1,0,0,1,0,0)"><svg width="113.8068017366136" viewBox="2.5 -34.15 25.45 34.55" height="154.5" data-palette-color="#c56e33"><path d="M27.95-5.15L27.95-1.75Q24.9 0.4 19.55 0.4L19.55 0.4Q11.9 0.4 7.2-4.25 2.5-8.9 2.5-17.05L2.5-17.05Q2.5-24.65 7.35-29.4 12.2-34.15 19.35-34.15L19.35-34.15Q24.3-34.15 27.85-32.35L27.85-32.35 27.85-29.1Q25.65-30.25 23.95-30.73 22.25-31.2 19.25-31.2L19.25-31.2Q13.45-31.2 9.58-27.28 5.7-23.35 5.7-17.05L5.7-17.05Q5.7-10.45 9.53-6.5 13.35-2.55 19.7-2.55L19.7-2.55Q24.65-2.55 27.95-5.15L27.95-5.15Z" opacity="1" transform="matrix(1,0,0,1,0,0)" fill="#c56e33" class="undefined-text-0" data-fill-palette-color="primary" id="text-0"></path></svg></g></svg></g></svg></g></svg></g><g></g></svg></g><defs></defs></svg><rect width="113.8068017366136" height="154.5" fill="none" stroke="none" visibility="hidden"></rect></g></svg></g></svg>