<svg xmlns="http://www.w3.org/2000/svg" version="1.1" xmlns:xlink="http://www.w3.org/1999/xlink" xmlns:svgjs="http://svgjs.dev/svgjs" width="1000" height="244" viewBox="0 0 1000 244"><g transform="matrix(1,0,0,1,0.16994382022460286,0.5525057471264461)"><svg viewBox="0 0 356 87" data-background-color="#ffffff" preserveAspectRatio="xMidYMid meet" height="244" width="1000" xmlns="http://www.w3.org/2000/svg" xmlns:xlink="http://www.w3.org/1999/xlink"><g id="tight-bounds" transform="matrix(1,0,0,1,-0.06049999999996203,-0.19700000000000273)"><svg viewBox="0 0 356.12052 87.39383057894736" height="87.39383057894736" width="356.12052"><g><svg viewBox="0 0 356.12052 87.39383057894736" height="87.39383057894736" width="356.12052"><g><svg viewBox="0 0 356.12052 87.39383057894736" height="87.39383057894736" width="356.12052"><g><path d="M0 87.394v-87.394h356.121v87.394z" fill="#e96b1b" stroke="transparent" stroke-width="0" rx="0%" data-fill-palette-color="tertiary"></path><path d="M3.283 84.111v-80.828h349.554v80.828z" fill="#ffffff" stroke="transparent" stroke-width="0" rx="0%" data-fill-palette-color="quaternary"></path><path d="M9.85 77.544v-67.694h336.421v67.694z" fill="#e96b1b" stroke="transparent" stroke-width="0" data-fill-palette-color="tertiary"></path></g><g transform="matrix(1,0,0,1,19.69974,19.69974)"><svg viewBox="0 0 316.72104 47.99435057894736" height="47.99435057894736" width="316.72104"><g><svg viewBox="0 0 316.72104 47.99435057894736" height="47.99435057894736" width="316.72104"><g transform="matrix(1,0,0,1,0,0)"><svg width="316.72104" viewBox="2.5 -34.150001525878906 227.97999572753906 34.55000305175781" height="47.99435057894736" data-palette-color="#ffffff"><path d="M27.95-5.15L27.95-1.75Q24.9 0.4 19.55 0.4L19.55 0.4Q11.9 0.4 7.2-4.25 2.5-8.9 2.5-17.05L2.5-17.05Q2.5-24.65 7.35-29.4 12.2-34.15 19.35-34.15L19.35-34.15Q24.3-34.15 27.85-32.35L27.85-32.35 27.85-29.1Q25.65-30.25 23.95-30.73 22.25-31.2 19.25-31.2L19.25-31.2Q13.45-31.2 9.58-27.28 5.7-23.35 5.7-17.05L5.7-17.05Q5.7-10.45 9.53-6.5 13.35-2.55 19.7-2.55L19.7-2.55Q24.65-2.55 27.95-5.15L27.95-5.15ZM57.9-33.7L57.9-12.75Q57.9-6.25 54.75-2.93 51.6 0.4 45.85 0.4L45.85 0.4Q40.2 0.4 37.07-2.85 33.95-6.1 33.95-12.35L33.95-12.35 33.95-33.7 37.05-33.7 37.05-12.4Q37.05-7.35 39.42-4.98 41.8-2.6 45.85-2.6L45.85-2.6Q54.8-2.6 54.8-12.65L54.8-12.65 54.8-33.7 57.9-33.7ZM83.85-2.85L83.85 0 65.9 0 65.9-33.7 69-33.7 69-2.85 83.85-2.85ZM92.94-33.7L92.94 0 89.84 0 89.84-33.7 92.94-33.7ZM104.29-14.25L104.29 0 101.19 0 101.19-33.7 105.44-33.7 114.04-19.45 123.54-3.65Q123.44-8.85 123.44-19.4L123.44-19.4 123.44-33.7 126.54-33.7 126.54 0 122.29 0 113.74-14.15 104.19-30.05Q104.29-24.65 104.29-14.25L104.29-14.25ZM140.74-14.2L140.74-14.2 139.99-12.1 153.04-12.1 152.29-14.25 146.59-31.1Q145.94-29.1 140.74-14.2ZM139.04-9.35L135.79 0 132.44 0 144.34-33.7 148.84-33.7 160.49 0 157.14 0 153.94-9.35 139.04-9.35ZM174.34-30.95L174.34-30.95 169.49-30.95 169.49-16.45 174.94-16.45Q178.64-16.45 180.64-18.5 182.64-20.55 182.64-23.6L182.64-23.6Q182.64-30.95 174.34-30.95ZM174.59-13.7L174.59-13.7 169.49-13.7 169.49 0 166.39 0 166.39-33.7 173.99-33.7Q179.89-33.7 182.81-31.03 185.74-28.35 185.74-23.45L185.74-23.45Q185.64-20.05 183.84-17.6 182.04-15.15 178.74-14.25L178.74-14.25 187.69 0 183.99 0 175.54-13.75Q175.24-13.7 174.59-13.7ZM196.28-33.7L196.28 0 193.18 0 193.18-33.7 196.28-33.7ZM210.73-14.2L210.73-14.2 209.98-12.1 223.03-12.1 222.28-14.25 216.58-31.1Q215.93-29.1 210.73-14.2ZM209.03-9.35L205.78 0 202.43 0 214.33-33.7 218.83-33.7 230.48 0 227.13 0 223.93-9.35 209.03-9.35Z" opacity="1" transform="matrix(1,0,0,1,0,0)" fill="#ffffff" class="undefined-text-0" data-fill-palette-color="quaternary" id="text-0"></path></svg></g></svg></g></svg></g></svg></g><g></g></svg></g><defs></defs></svg><rect width="356.12052" height="87.39383057894736" fill="none" stroke="none" visibility="hidden"></rect></g></svg></g></svg>